<svg xmlns="http://www.w3.org/2000/svg" viewBox="0 0 103.95 104.03">
    <defs>
        <style>.cls-1{fill:#c9cace;}.cls-2{fill:#071409;stroke:#071409;stroke-miterlimit:10;stroke-width:3px;}</style>
    </defs>
    <title>th-carrent - Logo</title>
    <g id="Dark_Logo" data-name="Dark Logo">
        <path id="Rect" class="cls-1" d="M103.93,19.57A20.18,20.18,0,0,0,98.45,5.73C94.4,1.49,88.39-.1,82.68,0c-21.52.1-43.05-.15-64.56.1C8.32.4.06,9.11.05,18.86,0,40.1.05,61.35,0,82.59a24.36,24.36,0,0,0,1.5,9.76A19.18,19.18,0,0,0,19.59,104c21.89,0,43.79,0,65.68,0,9.82,0,18.69-8.64,18.63-18.55C104,63.49,103.94,41.53,103.93,19.57Z"/>
        <g id="Shape">
            <path class="cls-2" d="M52,22.28q15.38,15.27,30.78,30.5,0,14.49,0,29Q67.37,66.55,52,51.29,36.58,66.5,21.18,81.73c0-9.66,0-19.33,0-29Q36.58,37.49,52,22.28m1.88,7.25c.09,6.15,0,12.29.07,18.43,8.22,8.3,16.69,16.34,25,24.55,0-6.05,0-12.1,0-18.15Q66.47,41.88,53.87,29.53M25.07,54.19c-.09,6.1,0,12.21-.05,18.32,7.7-7.48,15.33-15,23-22.52.89-1,2.34-1.9,2-3.45,0-5.66,0-11.32,0-17C41.71,37.74,33.46,46,25.07,54.19Z"/>
        </g>
    </g>
</svg>